<svg width="346" height="228" viewBox="0 0 346 228" version="1.1" xmlns="http://www.w3.org/2000/svg" xmlns:xlink="http://www.w3.org/1999/xlink">
<title>app-graph-paper</title>
<desc>Created using Figma</desc>
<g id="Canvas" transform="translate(-6166 -3384)">
<g id="app-graph-paper">
<g id="graph-paper">
<g id="Group">
<g id="Group">
<g id="Vector" opacity="0.5">
<use xlink:href="#path0_fill" transform="translate(6339 3384)" fill="#B32D00" fill-opacity="0.15"/>
</g>
<g id="Vector">
<use xlink:href="#path1_fill" transform="translate(6339 3384)" fill="#B32D00" fill-opacity="0.15"/>
</g>
</g>
</g>
</g>
<g id="graph-paper">
<g id="Group">
<g id="Group">
<g id="Vector" opacity="0.5">
<use xlink:href="#path0_fill" transform="translate(6166 3498)" fill="#B32D00" fill-opacity="0.15"/>
</g>
<g id="Vector">
<use xlink:href="#path1_fill" transform="translate(6166 3498)" fill="#B32D00" fill-opacity="0.15"/>
</g>
</g>
</g>
</g>
<g id="graph-paper">
<g id="Group">
<g id="Group">
<g id="Vector" opacity="0.5">
<use xlink:href="#path0_fill" transform="translate(6339 3498)" fill="#B32D00" fill-opacity="0.15"/>
</g>
<g id="Vector">
<use xlink:href="#path1_fill" transform="translate(6339 3498)" fill="#B32D00" fill-opacity="0.15"/>
</g>
</g>
</g>
</g>
</g>
</g>
<defs>
<path id="path0_fill" fill-rule="evenodd" d="M 166.08 108.3L 173 108.3L 173 109.44L 166.08 109.44L 166.08 114L 164.35 114L 164.35 109.44L 148.78 109.44L 148.78 114L 147.05 114L 147.05 109.44L 131.48 109.44L 131.48 114L 129.75 114L 129.75 109.44L 114.18 109.44L 114.18 114L 112.45 114L 112.45 109.44L 96.88 109.44L 96.88 114L 95.15 114L 95.15 109.44L 79.58 109.44L 79.58 114L 77.85 114L 77.85 109.44L 62.28 109.44L 62.28 114L 60.55 114L 60.55 109.44L 44.98 109.44L 44.98 114L 43.25 114L 43.25 109.44L 27.68 109.44L 27.68 114L 25.95 114L 25.95 109.44L 0 109.44L 0 108.3L 25.95 108.3L 25.95 98.04L 0 98.04L 0 96.9L 25.95 96.9L 25.95 86.64L 0 86.64L 0 85.5L 25.95 85.5L 25.95 75.24L 0 75.24L 0 74.1L 25.95 74.1L 25.95 63.84L 0 63.84L 0 62.7L 25.95 62.7L 25.95 52.44L 0 52.44L 0 51.3L 25.95 51.3L 25.95 41.04L 0 41.04L 0 39.9L 25.95 39.9L 25.95 29.64L 0 29.64L 0 28.5L 25.95 28.5L 25.95 18.24L 0 18.24L 0 17.1L 25.95 17.1L 25.95 0L 27.68 0L 27.68 17.1L 43.25 17.1L 43.25 0L 44.98 0L 44.98 17.1L 60.55 17.1L 60.55 0L 62.28 0L 62.28 17.1L 77.85 17.1L 77.85 0L 79.58 0L 79.58 17.1L 95.15 17.1L 95.15 0L 96.88 0L 96.88 17.1L 112.45 17.1L 112.45 0L 114.18 0L 114.18 17.1L 129.75 17.1L 129.75 0L 131.48 0L 131.48 17.1L 147.05 17.1L 147.05 0L 148.78 0L 148.78 17.1L 164.35 17.1L 164.35 0L 166.08 0L 166.08 17.1L 173 17.1L 173 18.24L 166.08 18.24L 166.08 28.5L 173 28.5L 173 29.64L 166.08 29.64L 166.08 39.9L 173 39.9L 173 41.04L 166.08 41.04L 166.08 51.3L 173 51.3L 173 52.44L 166.08 52.44L 166.08 62.7L 173 62.7L 173 63.84L 166.08 63.84L 166.08 74.1L 173 74.1L 173 75.24L 166.08 75.24L 166.08 85.5L 173 85.5L 173 86.64L 166.08 86.64L 166.08 96.9L 173 96.9L 173 98.04L 166.08 98.04L 166.08 108.3ZM 164.35 108.3L 164.35 98.04L 148.78 98.04L 148.78 108.3L 164.35 108.3ZM 147.05 108.3L 147.05 98.04L 131.48 98.04L 131.48 108.3L 147.05 108.3ZM 129.75 108.3L 129.75 98.04L 114.18 98.04L 114.18 108.3L 129.75 108.3ZM 112.45 108.3L 112.45 98.04L 96.88 98.04L 96.88 108.3L 112.45 108.3ZM 95.15 108.3L 95.15 98.04L 79.58 98.04L 79.58 108.3L 95.15 108.3ZM 77.85 108.3L 77.85 98.04L 62.28 98.04L 62.28 108.3L 77.85 108.3ZM 60.55 108.3L 60.55 98.04L 44.98 98.04L 44.98 108.3L 60.55 108.3ZM 43.25 108.3L 43.25 98.04L 27.68 98.04L 27.68 108.3L 43.25 108.3ZM 27.68 96.9L 43.25 96.9L 43.25 86.64L 27.68 86.64L 27.68 96.9ZM 44.98 96.9L 60.55 96.9L 60.55 86.64L 44.98 86.64L 44.98 96.9ZM 62.28 96.9L 77.85 96.9L 77.85 86.64L 62.28 86.64L 62.28 96.9ZM 79.58 96.9L 95.15 96.9L 95.15 86.64L 79.58 86.64L 79.58 96.9ZM 96.88 96.9L 112.45 96.9L 112.45 86.64L 96.88 86.64L 96.88 96.9ZM 114.18 96.9L 129.75 96.9L 129.75 86.64L 114.18 86.64L 114.18 96.9ZM 131.48 96.9L 147.05 96.9L 147.05 86.64L 131.48 86.64L 131.48 96.9ZM 148.78 96.9L 164.35 96.9L 164.35 86.64L 148.78 86.64L 148.78 96.9ZM 164.35 85.5L 164.35 75.24L 148.78 75.24L 148.78 85.5L 164.35 85.5ZM 147.05 85.5L 147.05 75.24L 131.48 75.24L 131.48 85.5L 147.05 85.5ZM 129.75 85.5L 129.75 75.24L 114.18 75.24L 114.18 85.5L 129.75 85.5ZM 112.45 85.5L 112.45 75.24L 96.88 75.24L 96.88 85.5L 112.45 85.5ZM 95.15 85.5L 95.15 75.24L 79.58 75.24L 79.58 85.5L 95.15 85.5ZM 77.85 85.5L 77.85 75.24L 62.28 75.24L 62.28 85.5L 77.85 85.5ZM 60.55 85.5L 60.55 75.24L 44.98 75.24L 44.98 85.5L 60.55 85.5ZM 43.25 85.5L 43.25 75.24L 27.68 75.24L 27.68 85.5L 43.25 85.5ZM 27.68 74.1L 43.25 74.1L 43.25 63.84L 27.68 63.84L 27.68 74.1ZM 44.98 74.1L 60.55 74.1L 60.55 63.84L 44.98 63.84L 44.98 74.1ZM 62.28 74.1L 77.85 74.1L 77.85 63.84L 62.28 63.84L 62.28 74.1ZM 79.58 74.1L 95.15 74.1L 95.15 63.84L 79.58 63.84L 79.58 74.1ZM 96.88 74.1L 112.45 74.1L 112.45 63.84L 96.88 63.84L 96.88 74.1ZM 114.18 74.1L 129.75 74.1L 129.75 63.84L 114.18 63.84L 114.18 74.1ZM 131.48 74.1L 147.05 74.1L 147.05 63.84L 131.48 63.84L 131.48 74.1ZM 148.78 74.1L 164.35 74.1L 164.35 63.84L 148.78 63.84L 148.78 74.1ZM 164.35 62.7L 164.35 52.44L 148.78 52.44L 148.78 62.7L 164.35 62.7ZM 147.05 62.7L 147.05 52.44L 131.48 52.44L 131.48 62.7L 147.05 62.7ZM 129.75 62.7L 129.75 52.44L 114.18 52.44L 114.18 62.7L 129.75 62.7ZM 112.45 62.7L 112.45 52.44L 96.88 52.44L 96.88 62.7L 112.45 62.7ZM 95.15 62.7L 95.15 52.44L 79.58 52.44L 79.58 62.7L 95.15 62.7ZM 77.85 62.7L 77.85 52.44L 62.28 52.44L 62.28 62.7L 77.85 62.7ZM 60.55 62.7L 60.55 52.44L 44.98 52.44L 44.98 62.7L 60.55 62.7ZM 43.25 62.7L 43.25 52.44L 27.68 52.44L 27.68 62.7L 43.25 62.7ZM 27.68 51.3L 43.25 51.3L 43.25 41.04L 27.68 41.04L 27.68 51.3ZM 44.98 51.3L 60.55 51.3L 60.55 41.04L 44.98 41.04L 44.98 51.3ZM 62.28 51.3L 77.85 51.3L 77.85 41.04L 62.28 41.04L 62.28 51.3ZM 79.58 51.3L 95.15 51.3L 95.15 41.04L 79.58 41.04L 79.58 51.3ZM 96.88 51.3L 112.45 51.3L 112.45 41.04L 96.88 41.04L 96.88 51.3ZM 114.18 51.3L 129.75 51.3L 129.75 41.04L 114.18 41.04L 114.18 51.3ZM 131.48 51.3L 147.05 51.3L 147.05 41.04L 131.48 41.04L 131.48 51.3ZM 148.78 51.3L 164.35 51.3L 164.35 41.04L 148.78 41.04L 148.78 51.3ZM 164.35 39.9L 164.35 29.64L 148.78 29.64L 148.78 39.9L 164.35 39.9ZM 147.05 39.9L 147.05 29.64L 131.48 29.64L 131.48 39.9L 147.05 39.9ZM 129.75 39.9L 129.75 29.64L 114.18 29.64L 114.18 39.9L 129.75 39.9ZM 112.45 39.9L 112.45 29.64L 96.88 29.64L 96.88 39.9L 112.45 39.9ZM 95.15 39.9L 95.15 29.64L 79.58 29.64L 79.58 39.9L 95.15 39.9ZM 77.85 39.9L 77.85 29.64L 62.28 29.64L 62.28 39.9L 77.85 39.9ZM 60.55 39.9L 60.55 29.64L 44.98 29.64L 44.98 39.9L 60.55 39.9ZM 43.25 39.9L 43.25 29.64L 27.68 29.64L 27.68 39.9L 43.25 39.9ZM 27.68 28.5L 43.25 28.5L 43.25 18.24L 27.68 18.24L 27.68 28.5ZM 44.98 28.5L 60.55 28.5L 60.55 18.24L 44.98 18.24L 44.98 28.5ZM 62.28 28.5L 77.85 28.5L 77.85 18.24L 62.28 18.24L 62.28 28.5ZM 79.58 28.5L 95.15 28.5L 95.15 18.24L 79.58 18.24L 79.58 28.5ZM 96.88 28.5L 112.45 28.5L 112.45 18.24L 96.88 18.24L 96.88 28.5ZM 114.18 28.5L 129.75 28.5L 129.75 18.24L 114.18 18.24L 114.18 28.5ZM 131.48 28.5L 147.05 28.5L 147.05 18.24L 131.48 18.24L 131.48 28.5ZM 148.78 28.5L 164.35 28.5L 164.35 18.24L 148.78 18.24L 148.78 28.5Z"/>
<path id="path1_fill" fill-rule="evenodd" d="M 10.38 5.7L 10.38 0L 8.65 0L 8.65 5.7L 0 5.7L 0 6.84L 8.65 6.84L 8.65 114L 10.38 114L 10.38 6.84L 173 6.84L 173 5.7L 10.38 5.7Z"/>
</defs>
</svg>
