<svg xmlns="http://www.w3.org/2000/svg" viewBox="0 0 120 120"><defs><style>.cls-1{fill:#2e2e2e;}.cls-2{fill:#fff;}.cls-3{fill:none;}.cls-4{fill:#3d9c9c;}</style></defs><title>Asset 7</title><g id="Layer_2" data-name="Layer 2"><g id="Layer_1-2" data-name="Layer 1"><path class="cls-1" d="M60,0a60,60,0,1,0,60,60A60.07,60.07,0,0,0,60,0Z"/><path class="cls-2" d="M69.63,60,96.42,33.22l-1.79-2.41-27.09,27L57.18,47.49V25.1L23,40.85,42.07,60,24.2,77.82l33,17.08V72.21L67.47,61.89,95.09,89.31,97,87.42ZM54.27,90.16h0L29,77l15-15L54.26,72.14h0Zm0-22-8.18-8.24,8.18-8.24Zm0-20.56L44.05,57.87,28,41.73,54.29,29.57h0Zm2.88,20.56V51.69l8.27,8.24Z"/><polygon class="cls-3" points="54.26 72.14 54.26 90.16 29.04 76.99 44.06 61.98 54.26 72.14"/><polygon class="cls-4" points="54.3 51.69 54.3 68.17 46.13 59.93 54.3 51.69"/><polygon class="cls-3" points="54.3 29.57 54.3 47.6 44.05 57.88 27.97 41.73 54.3 29.57"/><polygon class="cls-3" points="65.46 59.93 57.17 68.16 57.17 51.69 65.46 59.93"/></g></g></svg>