<svg width="1440" height="195" viewBox="0 0 1440 195" version="1.1" xmlns="http://www.w3.org/2000/svg" xmlns:xlink="http://www.w3.org/1999/xlink">
<title>map-details</title>
<desc>Created using Figma</desc>
<g id="Canvas" transform="translate(-5072 -4320)">
<g id="map-details">
<g id="Group 3">
<g id="Rectangle">
<use xlink:href="#path0_fill" transform="matrix(1 2.67189e-24 -2.67189e-24 1 5072 4372)" fill="#B32D00" fill-opacity="0.05"/>
</g>
<g id="Rectangle">
<use xlink:href="#path0_fill" transform="matrix(1 2.67189e-24 -2.67189e-24 1 5072 4349)" fill="#B32D00" fill-opacity="0.05"/>
</g>
<g id="Rectangle">
<use xlink:href="#path1_fill" transform="matrix(6.12323e-17 -1 1 6.12323e-17 5072 4515)" fill="#B32D00" fill-opacity="0.1"/>
</g>
<g id="Rectangle">
<use xlink:href="#path2_fill" transform="matrix(6.12323e-17 -1 1 6.12323e-17 5096 4515)" fill="#B32D00" fill-opacity="0.05"/>
</g>
</g>
<g id="Group">
<g id="Group">
<g id="Vector" opacity="0.5">
<use xlink:href="#path3_fill" transform="translate(5245 4320)" fill="#B32D00" fill-opacity="0.1"/>
</g>
<g id="Vector">
<use xlink:href="#path4_fill" transform="translate(5245 4320)" fill="#B32D00" fill-opacity="0.1"/>
</g>
</g>
</g>
<g id="graph-paper">
<g id="Group">
<g id="Group">
<g id="Vector" opacity="0.5">
<use xlink:href="#path3_fill" transform="translate(5418 4320)" fill="#B32D00" fill-opacity="0.1"/>
</g>
<g id="Vector">
<use xlink:href="#path4_fill" transform="translate(5418 4320)" fill="#B32D00" fill-opacity="0.1"/>
</g>
</g>
</g>
</g>
<g id="graph-paper">
<g id="Group">
<g id="Group">
<g id="Vector" opacity="0.5">
<use xlink:href="#path3_fill" transform="translate(6299 4389)" fill="#B32D00" fill-opacity="0.1"/>
</g>
<g id="Vector">
<use xlink:href="#path4_fill" transform="translate(6299 4389)" fill="#B32D00" fill-opacity="0.1"/>
</g>
</g>
</g>
</g>
<g id="graph-paper">
<g id="Group">
<g id="Group">
<g id="Vector" opacity="0.5">
<use xlink:href="#path3_fill" transform="translate(6126 4389)" fill="#B32D00" fill-opacity="0.1"/>
</g>
<g id="Vector">
<use xlink:href="#path4_fill" transform="translate(6126 4389)" fill="#B32D00" fill-opacity="0.1"/>
</g>
</g>
</g>
</g>
<g id="43&#194;&#186;50&#226;&#128;&#153;N, 110&#194;&#186;42&#226;&#128;&#153;W">
<use xlink:href="#path5_fill" transform="translate(6204 4374)" fill="#B32D00" fill-opacity="0.25"/>
</g>
</g>
</g>
<defs>
<path id="path0_fill" d="M 0 0L 511 0L 511 11L 0 11L 0 0Z"/>
<path id="path1_fill" d="M 0 0L 170 0L 170 9L 0 9L 0 0Z"/>
<path id="path2_fill" d="M 0 0L 170 0L 170 2L 0 2L 0 0Z"/>
<path id="path3_fill" fill-rule="evenodd" d="M 166.08 108.3L 173 108.3L 173 109.44L 166.08 109.44L 166.08 114L 164.35 114L 164.35 109.44L 148.78 109.44L 148.78 114L 147.05 114L 147.05 109.44L 131.48 109.44L 131.48 114L 129.75 114L 129.75 109.44L 114.18 109.44L 114.18 114L 112.45 114L 112.45 109.44L 96.88 109.44L 96.88 114L 95.15 114L 95.15 109.44L 79.58 109.44L 79.58 114L 77.85 114L 77.85 109.44L 62.28 109.44L 62.28 114L 60.55 114L 60.55 109.44L 44.98 109.44L 44.98 114L 43.25 114L 43.25 109.44L 27.68 109.44L 27.68 114L 25.95 114L 25.95 109.44L 0 109.44L 0 108.3L 25.95 108.3L 25.95 98.04L 0 98.04L 0 96.9L 25.95 96.9L 25.95 86.64L 0 86.64L 0 85.5L 25.95 85.5L 25.95 75.24L 0 75.24L 0 74.1L 25.95 74.1L 25.95 63.84L 0 63.84L 0 62.7L 25.95 62.7L 25.95 52.44L 0 52.44L 0 51.3L 25.95 51.3L 25.95 41.04L 0 41.04L 0 39.9L 25.95 39.9L 25.95 29.64L 0 29.64L 0 28.5L 25.95 28.5L 25.95 18.24L 0 18.24L 0 17.1L 25.95 17.1L 25.95 0L 27.68 0L 27.68 17.1L 43.25 17.1L 43.25 0L 44.98 0L 44.98 17.1L 60.55 17.1L 60.55 0L 62.28 0L 62.28 17.1L 77.85 17.1L 77.85 0L 79.58 0L 79.58 17.1L 95.15 17.1L 95.15 0L 96.88 0L 96.88 17.1L 112.45 17.1L 112.45 0L 114.18 0L 114.18 17.1L 129.75 17.1L 129.75 0L 131.48 0L 131.48 17.1L 147.05 17.1L 147.05 0L 148.78 0L 148.78 17.1L 164.35 17.1L 164.35 0L 166.08 0L 166.08 17.1L 173 17.1L 173 18.24L 166.08 18.24L 166.08 28.5L 173 28.5L 173 29.64L 166.08 29.64L 166.08 39.9L 173 39.9L 173 41.04L 166.08 41.04L 166.08 51.3L 173 51.3L 173 52.44L 166.08 52.44L 166.08 62.7L 173 62.7L 173 63.84L 166.08 63.84L 166.08 74.1L 173 74.1L 173 75.24L 166.08 75.24L 166.08 85.5L 173 85.5L 173 86.64L 166.08 86.64L 166.08 96.9L 173 96.9L 173 98.04L 166.08 98.04L 166.08 108.3ZM 164.35 108.3L 164.35 98.04L 148.78 98.04L 148.78 108.3L 164.35 108.3ZM 147.05 108.3L 147.05 98.04L 131.48 98.04L 131.48 108.3L 147.05 108.3ZM 129.75 108.3L 129.75 98.04L 114.18 98.04L 114.18 108.3L 129.75 108.3ZM 112.45 108.3L 112.45 98.04L 96.88 98.04L 96.88 108.3L 112.45 108.3ZM 95.15 108.3L 95.15 98.04L 79.58 98.04L 79.58 108.3L 95.15 108.3ZM 77.85 108.3L 77.85 98.04L 62.28 98.04L 62.28 108.3L 77.85 108.3ZM 60.55 108.3L 60.55 98.04L 44.98 98.04L 44.98 108.3L 60.55 108.3ZM 43.25 108.3L 43.25 98.04L 27.68 98.04L 27.68 108.3L 43.25 108.3ZM 27.68 96.9L 43.25 96.9L 43.25 86.64L 27.68 86.64L 27.68 96.9ZM 44.98 96.9L 60.55 96.9L 60.55 86.64L 44.98 86.64L 44.98 96.9ZM 62.28 96.9L 77.85 96.9L 77.85 86.64L 62.28 86.64L 62.28 96.9ZM 79.58 96.9L 95.15 96.9L 95.15 86.64L 79.58 86.64L 79.58 96.9ZM 96.88 96.9L 112.45 96.9L 112.45 86.64L 96.88 86.64L 96.88 96.9ZM 114.18 96.9L 129.75 96.9L 129.75 86.64L 114.18 86.64L 114.18 96.9ZM 131.48 96.9L 147.05 96.9L 147.05 86.64L 131.48 86.64L 131.48 96.9ZM 148.78 96.9L 164.35 96.9L 164.35 86.64L 148.78 86.64L 148.78 96.9ZM 164.35 85.5L 164.35 75.24L 148.78 75.24L 148.78 85.5L 164.35 85.5ZM 147.05 85.5L 147.05 75.24L 131.48 75.24L 131.48 85.5L 147.05 85.5ZM 129.75 85.5L 129.75 75.24L 114.18 75.24L 114.18 85.5L 129.75 85.5ZM 112.45 85.5L 112.45 75.24L 96.88 75.24L 96.88 85.5L 112.45 85.5ZM 95.15 85.5L 95.15 75.24L 79.58 75.24L 79.58 85.5L 95.15 85.5ZM 77.85 85.5L 77.85 75.24L 62.28 75.24L 62.28 85.5L 77.85 85.5ZM 60.55 85.5L 60.55 75.24L 44.98 75.24L 44.98 85.5L 60.55 85.5ZM 43.25 85.5L 43.25 75.24L 27.68 75.24L 27.68 85.5L 43.25 85.5ZM 27.68 74.1L 43.25 74.1L 43.25 63.84L 27.68 63.84L 27.68 74.1ZM 44.98 74.1L 60.55 74.1L 60.55 63.84L 44.98 63.84L 44.98 74.1ZM 62.28 74.1L 77.85 74.1L 77.85 63.84L 62.28 63.84L 62.28 74.1ZM 79.58 74.1L 95.15 74.1L 95.15 63.84L 79.58 63.84L 79.58 74.1ZM 96.88 74.1L 112.45 74.1L 112.45 63.84L 96.88 63.84L 96.88 74.1ZM 114.18 74.1L 129.75 74.1L 129.75 63.84L 114.18 63.84L 114.18 74.1ZM 131.48 74.1L 147.05 74.1L 147.05 63.84L 131.48 63.84L 131.48 74.1ZM 148.78 74.1L 164.35 74.1L 164.35 63.84L 148.78 63.84L 148.78 74.1ZM 164.35 62.7L 164.35 52.44L 148.78 52.44L 148.78 62.7L 164.35 62.7ZM 147.05 62.7L 147.05 52.44L 131.48 52.44L 131.48 62.7L 147.05 62.7ZM 129.75 62.7L 129.75 52.44L 114.18 52.44L 114.18 62.7L 129.75 62.7ZM 112.45 62.7L 112.45 52.44L 96.88 52.44L 96.88 62.7L 112.45 62.7ZM 95.15 62.7L 95.15 52.44L 79.58 52.44L 79.58 62.7L 95.15 62.7ZM 77.85 62.7L 77.85 52.44L 62.28 52.44L 62.28 62.7L 77.85 62.7ZM 60.55 62.7L 60.55 52.44L 44.98 52.44L 44.98 62.7L 60.55 62.7ZM 43.25 62.7L 43.25 52.44L 27.68 52.44L 27.68 62.7L 43.25 62.7ZM 27.68 51.3L 43.25 51.3L 43.25 41.04L 27.68 41.04L 27.68 51.3ZM 44.98 51.3L 60.55 51.3L 60.55 41.04L 44.98 41.04L 44.98 51.3ZM 62.28 51.3L 77.85 51.3L 77.85 41.04L 62.28 41.04L 62.28 51.3ZM 79.58 51.3L 95.15 51.3L 95.15 41.04L 79.58 41.04L 79.58 51.3ZM 96.88 51.3L 112.45 51.3L 112.45 41.04L 96.88 41.04L 96.88 51.3ZM 114.18 51.3L 129.75 51.3L 129.75 41.04L 114.18 41.04L 114.18 51.3ZM 131.48 51.3L 147.05 51.3L 147.05 41.04L 131.48 41.04L 131.48 51.3ZM 148.78 51.3L 164.35 51.3L 164.35 41.04L 148.78 41.04L 148.78 51.3ZM 164.35 39.9L 164.35 29.64L 148.78 29.64L 148.78 39.9L 164.35 39.9ZM 147.05 39.9L 147.05 29.64L 131.48 29.64L 131.48 39.9L 147.05 39.9ZM 129.75 39.9L 129.75 29.64L 114.18 29.64L 114.18 39.9L 129.75 39.9ZM 112.45 39.9L 112.45 29.64L 96.88 29.64L 96.88 39.9L 112.45 39.9ZM 95.15 39.9L 95.15 29.64L 79.58 29.64L 79.58 39.9L 95.15 39.9ZM 77.85 39.9L 77.85 29.64L 62.28 29.64L 62.28 39.9L 77.85 39.9ZM 60.55 39.9L 60.55 29.64L 44.98 29.64L 44.98 39.9L 60.55 39.9ZM 43.25 39.9L 43.25 29.64L 27.68 29.64L 27.68 39.9L 43.25 39.9ZM 27.68 28.5L 43.25 28.5L 43.25 18.24L 27.68 18.24L 27.68 28.5ZM 44.98 28.5L 60.55 28.5L 60.55 18.24L 44.98 18.24L 44.98 28.5ZM 62.28 28.5L 77.85 28.5L 77.85 18.24L 62.28 18.24L 62.28 28.5ZM 79.58 28.5L 95.15 28.5L 95.15 18.24L 79.58 18.24L 79.58 28.5ZM 96.88 28.5L 112.45 28.5L 112.45 18.24L 96.88 18.24L 96.88 28.5ZM 114.18 28.5L 129.75 28.5L 129.75 18.24L 114.18 18.24L 114.18 28.5ZM 131.48 28.5L 147.05 28.5L 147.05 18.24L 131.48 18.24L 131.48 28.5ZM 148.78 28.5L 164.35 28.5L 164.35 18.24L 148.78 18.24L 148.78 28.5Z"/>
<path id="path4_fill" fill-rule="evenodd" d="M 10.38 5.7L 10.38 0L 8.65 0L 8.65 5.7L 0 5.7L 0 6.84L 8.65 6.84L 8.65 114L 10.38 114L 10.38 6.84L 173 6.84L 173 5.7L 10.38 5.7Z"/>
<path id="path5_fill" d="M 5.28516 8.13477L 6.46875 8.13477L 6.46875 9.01953L 5.28516 9.01953L 5.28516 11L 4.19531 11L 4.19531 9.01953L 0.310547 9.01953L 0.310547 8.38086L 4.13086 2.46875L 5.28516 2.46875L 5.28516 8.13477ZM 1.54102 8.13477L 4.19531 8.13477L 4.19531 3.95117L 4.06641 4.18555L 1.54102 8.13477ZM 9.02344 6.20703L 9.83789 6.20703C 10.3496 6.19922 10.752 6.06445 11.0449 5.80273C 11.3379 5.54102 11.4844 5.1875 11.4844 4.74219C 11.4844 3.74219 10.9863 3.24219 9.99023 3.24219C 9.52148 3.24219 9.14648 3.37695 8.86523 3.64648C 8.58789 3.91211 8.44922 4.26562 8.44922 4.70703L 7.36523 4.70703C 7.36523 4.03125 7.61133 3.4707 8.10352 3.02539C 8.59961 2.57617 9.22852 2.35156 9.99023 2.35156C 10.7949 2.35156 11.4258 2.56445 11.8828 2.99023C 12.3398 3.41602 12.5684 4.00781 12.5684 4.76562C 12.5684 5.13672 12.4473 5.49609 12.2051 5.84375C 11.9668 6.19141 11.6406 6.45117 11.2266 6.62305C 11.6953 6.77148 12.0566 7.01758 12.3105 7.36133C 12.5684 7.70508 12.6973 8.125 12.6973 8.62109C 12.6973 9.38672 12.4473 9.99414 11.9473 10.4434C 11.4473 10.8926 10.7969 11.1172 9.99609 11.1172C 9.19531 11.1172 8.54297 10.9004 8.03906 10.4668C 7.53906 10.0332 7.28906 9.46094 7.28906 8.75L 8.37891 8.75C 8.37891 9.19922 8.52539 9.55859 8.81836 9.82812C 9.11133 10.0977 9.50391 10.2324 9.99609 10.2324C 10.5195 10.2324 10.9199 10.0957 11.1973 9.82227C 11.4746 9.54883 11.6133 9.15625 11.6133 8.64453C 11.6133 8.14844 11.4609 7.76758 11.1562 7.50195C 10.8516 7.23633 10.4121 7.09961 9.83789 7.0918L 9.02344 7.0918L 9.02344 6.20703ZM 14.1914 4.41992C 14.1914 3.80273 14.375 3.30469 14.7422 2.92578C 15.1094 2.54297 15.5938 2.35156 16.1953 2.35156C 16.8008 2.35156 17.2871 2.54102 17.6543 2.91992C 18.0215 3.29492 18.2051 3.80664 18.2051 4.45508L 18.2051 4.88867C 18.2051 5.50977 18.0215 6.00977 17.6543 6.38867C 17.291 6.76758 16.8086 6.95703 16.207 6.95703C 15.6055 6.95703 15.1191 6.76758 14.748 6.38867C 14.377 6.00977 14.1914 5.49805 14.1914 4.85352L 14.1914 4.41992ZM 15.1465 4.88867C 15.1465 5.2793 15.2402 5.58594 15.4277 5.80859C 15.6191 6.03125 15.8789 6.14258 16.207 6.14258C 16.5312 6.14258 16.7852 6.03125 16.9688 5.80859C 17.1562 5.58203 17.25 5.27148 17.25 4.87695L 17.25 4.41992C 17.25 4.0332 17.1543 3.72852 16.9629 3.50586C 16.7754 3.2832 16.5195 3.17188 16.1953 3.17188C 15.8789 3.17188 15.627 3.2793 15.4395 3.49414C 15.252 3.70898 15.1543 4.00586 15.1465 4.38477L 15.1465 4.88867ZM 20.1445 6.72266L 20.5781 2.46875L 24.9492 2.46875L 24.9492 3.4707L 21.498 3.4707L 21.2402 5.79688C 21.6582 5.55078 22.1328 5.42773 22.6641 5.42773C 23.4414 5.42773 24.0586 5.68555 24.5156 6.20117C 24.9727 6.71289 25.2012 7.40625 25.2012 8.28125C 25.2012 9.16016 24.9629 9.85352 24.4863 10.3613C 24.0137 10.8652 23.3516 11.1172 22.5 11.1172C 21.7461 11.1172 21.1309 10.9082 20.6543 10.4902C 20.1777 10.0723 19.9062 9.49414 19.8398 8.75586L 20.8652 8.75586C 20.9316 9.24414 21.1055 9.61328 21.3867 9.86328C 21.668 10.1094 22.0391 10.2324 22.5 10.2324C 23.0039 10.2324 23.3984 10.0605 23.6836 9.7168C 23.9727 9.37305 24.1172 8.89844 24.1172 8.29297C 24.1172 7.72266 23.9609 7.26563 23.6484 6.92188C 23.3398 6.57422 22.9277 6.40039 22.4121 6.40039C 21.9395 6.40039 21.5684 6.50391 21.2988 6.71094L 21.0117 6.94531L 20.1445 6.72266ZM 31.7344 7.36133C 31.7344 8.63086 31.5176 9.57422 31.084 10.1914C 30.6504 10.8086 29.9727 11.1172 29.0508 11.1172C 28.1406 11.1172 27.4668 10.8164 27.0293 10.2148C 26.5918 9.60938 26.3652 8.70703 26.3496 7.50781L 26.3496 6.06055C 26.3496 4.80664 26.5664 3.875 27 3.26562C 27.4336 2.65625 28.1133 2.35156 29.0391 2.35156C 29.957 2.35156 30.6328 2.64648 31.0664 3.23633C 31.5 3.82227 31.7227 4.72852 31.7344 5.95508L 31.7344 7.36133ZM 30.6504 5.87891C 30.6504 4.96094 30.5215 4.29297 30.2637 3.875C 30.0059 3.45312 29.5977 3.24219 29.0391 3.24219C 28.4844 3.24219 28.0801 3.45117 27.8262 3.86914C 27.5723 4.28711 27.4414 4.92969 27.4336 5.79688L 27.4336 7.53125C 27.4336 8.45313 27.5664 9.13477 27.832 9.57617C 28.1016 10.0137 28.5078 10.2324 29.0508 10.2324C 29.5859 10.2324 29.9824 10.0254 30.2402 9.61133C 30.502 9.19727 30.6387 8.54492 30.6504 7.6543L 30.6504 5.87891ZM 33.3105 4.87109L 32.6953 4.44922C 33.0586 3.94141 33.2461 3.40625 33.2578 2.84375L 33.2578 2L 34.3301 2L 34.3301 2.76172C 34.3262 3.15234 34.2285 3.54297 34.0371 3.93359C 33.8496 4.32031 33.6074 4.63281 33.3105 4.87109ZM 42.3633 11L 41.2324 11L 36.9375 4.42578L 36.9375 11L 35.8066 11L 35.8066 2.46875L 36.9375 2.46875L 41.2441 9.07227L 41.2441 2.46875L 42.3633 2.46875L 42.3633 11ZM 44.1562 12.6992L 43.541 12.2773C 43.9082 11.7656 44.0996 11.2383 44.1152 10.6953L 44.1152 9.7168L 45.1758 9.7168L 45.1758 10.5664C 45.1758 10.9609 45.0781 11.3555 44.8828 11.75C 44.6914 12.1445 44.4492 12.4609 44.1562 12.6992ZM 52.9746 11L 51.8848 11L 51.8848 3.77539L 49.6992 4.57812L 49.6992 3.59375L 52.8047 2.42773L 52.9746 2.42773L 52.9746 11ZM 59.7129 11L 58.623 11L 58.623 3.77539L 56.4375 4.57812L 56.4375 3.59375L 59.543 2.42773L 59.7129 2.42773L 59.7129 11ZM 68.2383 7.36133C 68.2383 8.63086 68.0215 9.57422 67.5879 10.1914C 67.1543 10.8086 66.4766 11.1172 65.5547 11.1172C 64.6445 11.1172 63.9707 10.8164 63.5332 10.2148C 63.0957 9.60938 62.8691 8.70703 62.8535 7.50781L 62.8535 6.06055C 62.8535 4.80664 63.0703 3.875 63.5039 3.26562C 63.9375 2.65625 64.6172 2.35156 65.543 2.35156C 66.4609 2.35156 67.1367 2.64648 67.5703 3.23633C 68.0039 3.82227 68.2266 4.72852 68.2383 5.95508L 68.2383 7.36133ZM 67.1543 5.87891C 67.1543 4.96094 67.0254 4.29297 66.7676 3.875C 66.5098 3.45312 66.1016 3.24219 65.543 3.24219C 64.9883 3.24219 64.584 3.45117 64.3301 3.86914C 64.0762 4.28711 63.9453 4.92969 63.9375 5.79688L 63.9375 7.53125C 63.9375 8.45313 64.0703 9.13477 64.3359 9.57617C 64.6055 10.0137 65.0117 10.2324 65.5547 10.2324C 66.0898 10.2324 66.4863 10.0254 66.7441 9.61133C 67.0059 9.19727 67.1426 8.54492 67.1543 7.6543L 67.1543 5.87891ZM 69.6328 4.41992C 69.6328 3.80273 69.8164 3.30469 70.1836 2.92578C 70.5508 2.54297 71.0352 2.35156 71.6367 2.35156C 72.2422 2.35156 72.7285 2.54102 73.0957 2.91992C 73.4629 3.29492 73.6465 3.80664 73.6465 4.45508L 73.6465 4.88867C 73.6465 5.50977 73.4629 6.00977 73.0957 6.38867C 72.7324 6.76758 72.25 6.95703 71.6484 6.95703C 71.0469 6.95703 70.5605 6.76758 70.1895 6.38867C 69.8184 6.00977 69.6328 5.49805 69.6328 4.85352L 69.6328 4.41992ZM 70.5879 4.88867C 70.5879 5.2793 70.6816 5.58594 70.8691 5.80859C 71.0605 6.03125 71.3203 6.14258 71.6484 6.14258C 71.9727 6.14258 72.2266 6.03125 72.4102 5.80859C 72.5977 5.58203 72.6914 5.27148 72.6914 4.87695L 72.6914 4.41992C 72.6914 4.0332 72.5957 3.72852 72.4043 3.50586C 72.2168 3.2832 71.9609 3.17188 71.6367 3.17188C 71.3203 3.17188 71.0684 3.2793 70.8809 3.49414C 70.6934 3.70898 70.5957 4.00586 70.5879 4.38477L 70.5879 4.88867ZM 79.6641 8.13477L 80.8477 8.13477L 80.8477 9.01953L 79.6641 9.01953L 79.6641 11L 78.5742 11L 78.5742 9.01953L 74.6895 9.01953L 74.6895 8.38086L 78.5098 2.46875L 79.6641 2.46875L 79.6641 8.13477ZM 75.9199 8.13477L 78.5742 8.13477L 78.5742 3.95117L 78.4453 4.18555L 75.9199 8.13477ZM 87.416 11L 81.8262 11L 81.8262 10.2207L 84.7793 6.93945C 85.2168 6.44336 85.5176 6.04102 85.6816 5.73242C 85.8496 5.41992 85.9336 5.09766 85.9336 4.76562C 85.9336 4.32031 85.7988 3.95508 85.5293 3.66992C 85.2598 3.38477 84.9004 3.24219 84.4512 3.24219C 83.9121 3.24219 83.4922 3.39648 83.1914 3.70508C 82.8945 4.00977 82.7461 4.43555 82.7461 4.98242L 81.6621 4.98242C 81.6621 4.19727 81.9141 3.5625 82.418 3.07812C 82.9258 2.59375 83.6035 2.35156 84.4512 2.35156C 85.2441 2.35156 85.8711 2.56055 86.332 2.97852C 86.793 3.39258 87.0234 3.94531 87.0234 4.63672C 87.0234 5.47656 86.4883 6.47656 85.418 7.63672L 83.1328 10.1152L 87.416 10.1152L 87.416 11ZM 88.752 4.87109L 88.1367 4.44922C 88.5 3.94141 88.6875 3.40625 88.6992 2.84375L 88.6992 2L 89.7715 2L 89.7715 2.76172C 89.7676 3.15234 89.6699 3.54297 89.4785 3.93359C 89.291 4.32031 89.0488 4.63281 88.752 4.87109ZM 93.0879 8.31055L 93.252 9.43555L 93.4922 8.42188L 95.1797 2.46875L 96.1289 2.46875L 97.7754 8.42188L 98.0098 9.45312L 98.1914 8.30469L 99.5156 2.46875L 100.646 2.46875L 98.5781 11L 97.5527 11L 95.7949 4.7832L 95.6602 4.13281L 95.5254 4.7832L 93.7031 11L 92.6777 11L 90.6152 2.46875L 91.7402 2.46875L 93.0879 8.31055Z"/>
</defs>
</svg>
